<svg width="142" height="161" viewBox="0 0 142 161" fill="none" xmlns="http://www.w3.org/2000/svg">
<g clip-path="url(#clip0_1_259)">
<path d="M141.349 117.098L120.334 80.6282C120.315 80.5958 120.295 80.5659 120.272 80.5336L120.27 80.5311L120.267 80.5261V80.5236L108.32 59.7876C108.268 59.6955 108.203 59.6133 108.134 59.5362L96.3133 39.0243L95.3144 37.2863C94.8895 36.5518 94.2757 35.9393 93.5427 35.511C92.909 35.14 92.2133 34.9259 91.5026 34.8661C92.1685 33.4319 92.1064 31.7388 91.3138 30.3544C90.8864 29.6075 90.2627 28.9875 89.5197 28.5592C88.891 28.1957 88.2052 27.9815 87.4995 27.9243C88.1679 26.4901 88.1033 24.7969 87.3131 23.4101C86.8832 22.6631 86.2645 22.0431 85.5215 21.6148C84.5674 21.0671 83.5038 20.8753 82.49 21.0023C82.9547 18.0468 82.4179 14.9643 80.8798 12.3051L75.2914 2.59692C75.2317 2.48487 75.1671 2.37283 75.1 2.26825C73.6588 -0.0075257 70.6397 -0.684781 68.366 0.759366C66.2365 2.11388 65.5109 4.86025 66.6192 7.07378C65.0413 7.16839 63.538 8.02741 62.6856 9.49646C61.883 10.8858 61.8184 12.5815 62.4893 14.0181C60.9512 14.1526 59.5025 15.0141 58.6825 16.4508L0.656004 117.163C0.226123 117.905 0 118.751 0 119.61C0 120.915 0.504427 122.142 1.4288 123.066C2.35068 123.99 3.57572 124.498 4.88027 124.498C4.88276 124.498 4.88276 124.498 4.88276 124.498C6.47058 124.495 7.95902 123.706 8.86351 122.421C9.02254 122.65 9.2089 122.872 9.41266 123.074C10.3345 123.992 11.5546 124.498 12.8542 124.498H12.8641C14.5166 124.495 16.0671 123.641 16.9592 122.254C17.1431 122.543 17.3617 122.815 17.6102 123.066C18.5321 123.99 19.7547 124.498 21.0617 124.498C22.7986 124.495 24.4138 123.554 25.2835 122.05L48.2883 82.1147L71.6311 41.6063C71.8647 43.2522 72.4064 44.8631 73.2612 46.3446L92.7152 80.1202C92.1313 79.9908 91.5275 79.9235 90.9112 79.9235H53.1338C50.4154 79.926 48.2088 82.142 48.2113 84.866C48.2113 85.7275 48.4374 86.5766 48.8599 87.3136C49.6501 88.7154 51.0764 89.6392 52.6617 89.801C52.53 90.0749 52.4232 90.3612 52.3436 90.6625C52.0007 91.9398 52.1747 93.2744 52.8332 94.4223C53.7128 95.9486 55.3503 96.8997 57.1096 96.9022H82.9572C83.4591 96.9047 83.9486 96.9719 84.4232 97.0989L72.8612 117.16C72.4263 117.902 72.2002 118.751 72.2002 119.603C72.1977 120.907 72.6996 122.137 73.6166 123.064C74.536 123.99 75.7585 124.503 77.0581 124.508H77.078C78.6807 124.508 80.1816 123.714 81.0861 122.409C81.2451 122.64 81.4265 122.86 81.6278 123.064C82.5447 123.99 83.7672 124.503 85.0718 124.508H85.0917C86.836 124.508 88.4537 123.569 89.3209 122.055L99.7399 103.974H106.466L116.885 122.058C117.755 123.562 119.373 124.495 121.107 124.495C122.412 124.493 123.637 123.98 124.554 123.056C124.71 122.899 124.854 122.735 124.986 122.561L125.081 122.725C125.96 124.251 127.6 125.195 129.355 125.195C129.357 125.195 129.357 125.195 129.357 125.195C130.18 125.195 130.992 124.988 131.715 124.597C132.478 124.182 133.107 123.589 133.551 122.867C134.463 123.846 135.756 124.426 137.125 124.431C139.813 124.428 142 122.232 141.995 119.538C141.998 118.679 141.774 117.84 141.349 117.098ZM107.117 63.3607L116.659 79.921H97.5334L100.123 75.4268L100.125 75.4243L100.441 74.8765L104.131 68.4774L104.441 67.9321V67.9296L104.444 67.9271L107.098 63.3258L107.117 63.3607ZM91.0926 37.6797C91.443 37.6797 91.8008 37.7694 92.1238 37.9586C92.4369 38.1404 92.6953 38.3993 92.8693 38.7031L93.8657 40.4386L105.445 60.5321L105.465 60.567L103.092 64.6853L103.072 64.6504L89.306 40.7697C88.9407 40.1348 88.9407 39.343 89.306 38.7081C89.6887 38.0482 90.3819 37.6797 91.0926 37.6797ZM85.3078 31.7637C85.5812 31.2881 86.021 30.947 86.5528 30.8051C87.0845 30.6632 87.6362 30.7329 88.1133 31.0068C88.4263 31.1885 88.6873 31.45 88.8662 31.7612C89.229 32.3961 89.229 33.1854 88.8687 33.8154L86.9429 37.1544C86.9255 37.1793 86.9131 37.2066 86.9006 37.234C86.8982 37.2365 86.8982 37.2365 86.8957 37.239C86.8832 37.254 86.8758 37.2714 86.8658 37.2888C85.9912 38.7977 85.9912 40.6751 86.8634 42.184L101.445 67.479L101.464 67.5138L99.0939 71.6321L99.074 71.5973L83.7051 44.9303C81.8638 41.7258 81.8638 37.747 83.7051 34.5449L85.2929 31.7886C85.2979 31.7811 85.3029 31.7712 85.3078 31.7637ZM8.41872 117.576L8.41126 117.588L6.65446 120.636C6.2867 121.271 5.60585 121.667 4.8753 121.669C4.32863 121.669 3.81178 121.455 3.42414 121.067C3.03402 120.678 2.82032 120.163 2.82032 119.61C2.82032 119.249 2.91723 118.891 3.09862 118.577L61.1276 17.8626C61.5078 17.1977 62.2011 16.8267 62.9143 16.8267C63.2621 16.8267 63.6125 16.9139 63.933 17.0981C64.184 17.2401 64.4002 17.4368 64.5692 17.6683C64.5766 17.6758 64.5816 17.6858 64.5891 17.6932C64.6089 17.743 64.6338 17.7928 64.6611 17.8377C64.8177 18.1115 64.9121 18.4178 64.932 18.7315C64.9344 18.7763 64.9344 18.8212 64.9344 18.866V18.9108C64.9344 18.9556 64.9344 19.0004 64.932 19.0428C64.9171 19.3565 64.8276 19.6603 64.681 19.9242L8.41872 117.576ZM14.6383 120.636C14.2706 121.271 13.5897 121.667 12.8567 121.669H12.8542C12.305 121.669 11.7932 121.455 11.403 121.069C11.0154 120.681 10.8017 120.165 10.7992 119.615C10.7992 119.351 10.8464 119.09 10.9433 118.846C10.9831 118.754 11.0278 118.664 11.075 118.577L67.1037 21.341C67.5336 20.5965 67.7523 19.7648 67.7597 18.9307V18.9008C67.7597 18.8486 67.7597 18.7988 67.7572 18.749C67.7548 18.6519 67.7473 18.5547 67.7374 18.4576C67.6827 17.8302 67.5038 17.2127 67.2056 16.64C67.1808 16.5603 67.1435 16.4831 67.1012 16.4109L66.9546 16.1545L65.1233 12.9823C64.758 12.3449 64.758 11.5531 65.1208 10.9232C65.6948 9.93717 66.9596 9.60601 67.9436 10.1787C68.2493 10.358 68.5052 10.6144 68.6816 10.9157L70.2844 13.7019C72.1256 16.9089 72.1182 20.8903 70.2645 24.0898C70.262 24.0923 70.262 24.0923 70.262 24.0923L14.6383 120.636ZM73.2563 33.1307L45.8432 80.7004L22.8384 120.636C22.4731 121.271 21.7898 121.667 21.0617 121.669C20.5125 121.669 19.9982 121.455 19.6081 121.067C19.2229 120.678 19.0067 120.163 19.0067 119.61C19.0067 119.249 19.1036 118.891 19.285 118.577L72.9357 25.5041C75.2839 21.4281 75.2839 16.3661 72.9357 12.2901C72.9307 12.2827 72.9283 12.2777 72.9258 12.2727L71.2684 9.49397L69.278 6.03797C69.268 6.02054 69.2581 6.00311 69.2482 5.98569C68.6419 5.02707 68.9251 3.75224 69.8818 3.1447C70.8385 2.53716 72.1082 2.8235 72.7146 3.78212C72.7444 3.82942 72.7767 3.88171 72.8015 3.93151C72.809 3.94894 72.8214 3.96637 72.8313 3.9838L78.4397 13.7119C80.2859 16.9089 80.2934 20.8853 78.4571 24.0898L73.2563 33.1307ZM75.7088 44.9279C73.8626 41.7258 73.8626 37.747 75.7088 34.5449L81.3072 24.8169C81.6874 24.157 82.3782 23.7885 83.0889 23.7885C83.4392 23.7885 83.7921 23.8757 84.1101 24.0624C84.4257 24.2442 84.6841 24.5031 84.863 24.8169C85.2258 25.4518 85.2258 26.2411 84.868 26.871L82.8602 30.3519V30.3544L81.2575 33.1332C78.9143 37.2091 78.9143 42.2686 81.2575 46.3471L97.4389 74.4283L97.4588 74.4632L95.0858 78.579L95.0659 78.5441L75.7088 44.9279ZM80.8227 117.247L78.8646 120.641C78.4968 121.281 77.816 121.674 77.0829 121.674H77.0755C76.5288 121.672 76.012 121.455 75.6268 121.067C75.2417 120.676 75.028 120.16 75.0304 119.6C75.0304 119.242 75.1249 118.891 75.3088 118.577L86.8857 98.4883C87.2783 98.8618 87.6188 99.295 87.8946 99.7756C88.3642 100.587 88.9581 101.307 89.6489 101.907L80.8227 117.247ZM86.8758 120.641C86.513 121.281 85.8297 121.674 85.0941 121.674H85.0867C84.5375 121.672 84.0232 121.455 83.638 121.067C83.2504 120.676 83.0367 120.16 83.0416 119.595C83.0392 119.267 83.1212 118.94 83.2827 118.654L92.0642 103.378C93.0308 103.764 94.072 103.971 95.1454 103.971H96.4848L86.8758 120.641ZM95.1404 101.14C94.3428 101.14 93.5675 100.966 92.8569 100.647C92.8618 100.652 92.8643 100.657 92.8643 100.662C92.8618 100.657 92.8593 100.652 92.8544 100.647C92.427 100.453 92.017 100.201 91.6492 99.905C91.1274 99.4818 90.6751 98.9639 90.3347 98.3688C89.6961 97.2508 88.8239 96.3121 87.8026 95.6L86.4509 94.8281C85.37 94.3401 84.1797 94.0712 82.9572 94.0687H57.1146C56.3592 94.0662 55.656 93.6579 55.2783 93.0055C54.9975 92.515 54.9229 91.9423 55.0695 91.3945C55.2161 90.8468 55.569 90.3886 56.0585 90.1073C56.3791 89.923 56.7443 89.8259 57.1121 89.8234H86.9454C88.8786 89.8284 90.6776 90.8219 91.7238 92.4403C91.7809 92.5299 91.8356 92.6196 91.8878 92.7117L96.7457 101.143H95.1404V101.14ZM100.033 101.177C100.021 101.165 100.006 101.152 99.9909 101.14H100.011L94.3403 91.3024C92.8643 88.7129 90.131 87.077 87.1615 86.9974C87.0945 86.9949 87.0224 86.9949 86.9528 86.9949H53.1438C52.3884 86.9899 51.6901 86.5791 51.3149 85.9118C51.131 85.5931 51.0341 85.2295 51.0341 84.861C51.0316 83.6982 51.9734 82.7521 53.1338 82.7521H90.9137C92.9538 82.7546 94.8447 83.8601 95.8611 85.6428L97.3892 88.2971L102.274 96.7653L104.797 101.143H100.013L100.033 101.177ZM122.556 121.057C122.365 121.251 122.138 121.403 121.895 121.505C121.649 121.61 121.383 121.664 121.11 121.664C120.377 121.664 119.696 121.271 119.333 120.639L108.325 101.538C108.27 101.444 108.208 101.357 108.134 101.282V101.279L105.609 96.8972H106.186C108.663 96.8972 110.976 98.2343 112.214 100.388L123.026 119.145L123.05 119.192C123.063 119.217 123.075 119.244 123.09 119.267L123.137 119.351V119.354C123.147 119.436 123.15 119.516 123.15 119.598C123.157 120.148 122.944 120.666 122.556 121.057ZM131.392 120.843C131.231 121.385 130.868 121.834 130.371 122.103C130.063 122.272 129.715 122.359 129.362 122.359C129.359 122.359 129.359 122.359 129.359 122.359C128.607 122.359 127.906 121.953 127.531 121.301L125.811 118.323L125.809 118.32V118.318L125.56 117.887L125.535 117.84C125.523 117.815 125.51 117.788 125.496 117.765L124.867 116.675V116.672L114.664 98.9713C112.925 95.9436 109.677 94.0637 106.188 94.0637H103.982L101.534 89.8184H110.258C112.738 89.8209 115.047 91.158 116.289 93.3118L131.236 119.239C131.496 119.737 131.551 120.305 131.392 120.843ZM137.13 121.597C136.397 121.595 135.716 121.199 135.348 120.571L133.392 117.175L120.302 94.477C120.223 94.3351 120.118 94.2131 120.002 94.1135V94.111L118.727 91.9025C116.985 88.8748 113.74 86.9949 110.251 86.9949H99.899L98.3062 84.2336C97.998 83.6957 97.6402 83.2027 97.2352 82.7521H118.292L138.904 118.512C139.085 118.823 139.177 119.179 139.18 119.535C139.18 120.673 138.258 121.597 137.13 121.597Z" fill="white"/>
<path d="M95.1404 101.14C94.3428 101.14 93.5675 100.966 92.8569 100.647C92.8618 100.652 92.8643 100.657 92.8643 100.662C92.8618 100.657 92.8593 100.652 92.8544 100.647C92.427 100.453 92.017 100.201 91.6492 99.9051C91.1274 99.4818 90.6751 98.9639 90.3347 98.3689C89.6961 97.2509 88.8239 96.3122 87.8026 95.6001L86.4509 94.8282C85.37 94.3402 84.1797 94.0713 82.9572 94.0688H57.1146C56.3592 94.0663 55.656 93.6579 55.2783 93.0056C54.9975 92.5151 54.9229 91.9424 55.0695 91.3946C55.2161 90.8468 55.569 90.3887 56.0585 90.1073C56.3791 89.9231 56.7443 89.826 57.1121 89.8235H86.9454C88.8786 89.8285 90.6776 90.8219 91.7238 92.4404C91.7809 92.53 91.8356 92.6197 91.8878 92.7118L96.7457 101.143H95.1404V101.14Z" fill="white"/>
<path d="M116.659 79.9212H97.5333L100.125 75.4269V75.4244L100.443 74.8741L104.131 68.4751L104.441 67.9298L104.444 67.9248L107.098 63.3259L107.117 63.3608L116.659 79.9212Z" fill="white"/>
<path d="M31.8087 158.752H28.0243L22.478 143.695L16.9443 158.752H13.1449L20.848 137.831H24.1081L31.8087 158.752Z" fill="white"/>
<path d="M55.3479 161H51.4889L50.2663 158.754H43.2615C41.942 158.754 40.8189 158.286 39.892 157.355C38.9652 156.421 38.5005 155.298 38.5005 153.983V142.604C38.5005 141.282 38.9652 140.157 39.892 139.228C40.8189 138.299 41.942 137.834 43.2615 137.834H50.9198C52.2294 137.834 53.3525 138.299 54.2843 139.228C55.2162 140.157 55.6808 141.282 55.6808 142.604V153.983C55.6808 154.77 55.5044 155.505 55.1491 156.187C54.7937 156.867 54.2968 157.437 53.6557 157.895L55.3479 161ZM48.2561 155.091L46.7279 152.29H50.6142L51.8517 154.566C51.9684 154.392 52.0256 154.202 52.0256 153.996V142.587C52.0256 142.286 51.9187 142.027 51.7051 141.813C51.4914 141.598 51.2329 141.491 50.9323 141.491H43.2441C42.9434 141.491 42.685 141.598 42.4713 141.813C42.2576 142.027 42.1508 142.286 42.1508 142.587V153.996C42.1508 154.297 42.2576 154.556 42.4713 154.77C42.685 154.984 42.9409 155.091 43.2441 155.091H48.2561Z" fill="white"/>
<path d="M67.4988 158.752H63.8286V137.831H78.9987V141.509H67.4963V146.439H77.1351V150.117H67.4963V155.061H78.9987V158.739H67.4963V158.752H67.4988Z" fill="white"/>
<path d="M102.334 158.752H87.149V137.831H90.8192V155.076H102.337V158.752H102.334Z" fill="white"/>
<path d="M128.855 158.752H125.071L119.524 143.695L113.991 158.752H110.191L117.894 137.831H121.155L128.855 158.752Z" fill="white"/>
</g>
<defs>
<clipPath id="clip0_1_259">
<rect width="142" height="161" fill="white"/>
</clipPath>
</defs>
</svg>
