<svg width="82" height="93" viewBox="0 0 82 93" fill="none" xmlns="http://www.w3.org/2000/svg">
<g clip-path="url(#clip0_1_78)">
<path d="M81.6241 67.6404L69.4889 46.574C69.4774 46.5553 69.466 46.5381 69.453 46.5194L69.4516 46.5179L69.4502 46.5151V46.5136L62.5511 34.5357C62.5209 34.4825 62.4836 34.435 62.4435 34.3904L55.6175 22.542L55.0407 21.5381C54.7953 21.1138 54.4409 20.76 54.0176 20.5126C53.6517 20.2983 53.2499 20.1746 52.8395 20.1401C53.2241 19.3116 53.1882 18.3336 52.7305 17.5339C52.4837 17.1024 52.1235 16.7443 51.6945 16.4969C51.3314 16.2869 50.9354 16.1632 50.5279 16.1302C50.9139 15.3017 50.8766 14.3237 50.4203 13.5226C50.172 13.0911 49.8147 12.733 49.3857 12.4856C48.8347 12.1692 48.2205 12.0584 47.6351 12.1318C47.9034 10.4246 47.5935 8.64397 46.7052 7.1079L43.4781 1.50008C43.4437 1.43536 43.4064 1.37064 43.3676 1.31023C42.5354 -0.00434714 40.7919 -0.395557 39.479 0.43864C38.2493 1.22106 37.8303 2.80747 38.4702 4.08609C37.5591 4.14075 36.6909 4.63695 36.1988 5.48553C35.7353 6.28809 35.698 7.26755 36.0854 8.09743C35.1972 8.1751 34.3606 8.67274 33.8871 9.50262L0.378819 67.6778C0.130578 68.1064 0 68.5954 0 69.0916C0 69.8453 0.291289 70.5543 0.82508 71.0879C1.35744 71.6215 2.06485 71.9149 2.81818 71.9149C2.81962 71.9149 2.81962 71.9149 2.81962 71.9149C3.73653 71.9135 4.59605 71.4576 5.11836 70.7154C5.2102 70.8477 5.31782 70.9757 5.43548 71.0922C5.96784 71.623 6.67238 71.9149 7.42285 71.9149H7.42859C8.38281 71.9135 9.2782 71.4202 9.79334 70.619C9.89952 70.7859 10.0258 70.9427 10.1693 71.0879C10.7016 71.6215 11.4076 71.9149 12.1624 71.9149C13.1654 71.9135 14.0981 71.3698 14.6003 70.5011L27.8848 47.4327L41.3645 24.0335C41.4993 24.9842 41.8122 25.9147 42.3058 26.7705L53.5398 46.2806C53.2026 46.2058 52.8539 46.167 52.498 46.167H30.6829C29.1131 46.1684 27.8389 47.4485 27.8403 49.022C27.8403 49.5196 27.9709 50.0101 28.2149 50.4358C28.6712 51.2455 29.4948 51.7791 30.4103 51.8726C30.3342 52.0308 30.2725 52.1962 30.2266 52.3703C30.0286 53.1081 30.129 53.879 30.5093 54.5421C31.0173 55.4237 31.9629 55.9731 32.9788 55.9746H47.9048C48.1947 55.976 48.4774 56.0148 48.7514 56.0882L42.0748 67.6763C41.8236 68.1049 41.6931 68.5954 41.6931 69.0873C41.6916 69.8409 41.9815 70.5514 42.511 71.0865C43.0419 71.6215 43.7479 71.9178 44.4983 71.9207H44.5098C45.4353 71.9207 46.302 71.4619 46.8243 70.7082C46.9162 70.842 47.0209 70.9685 47.1372 71.0865C47.6666 71.6215 48.3726 71.9178 49.126 71.9207H49.1374C50.1447 71.9207 51.0789 71.3785 51.5797 70.504L57.5963 60.0593H61.4806L67.4973 70.5054C67.9995 71.3741 68.9336 71.9135 69.9352 71.9135C70.6885 71.912 71.3959 71.6158 71.9254 71.0822C72.0158 70.9916 72.099 70.8966 72.1751 70.796L72.2296 70.8909C72.7376 71.7725 73.6846 72.3176 74.6977 72.3176C74.6991 72.3176 74.6991 72.3176 74.6991 72.3176C75.1741 72.3176 75.6433 72.1983 76.0609 71.9725C76.5014 71.7323 76.8644 71.39 77.1213 70.9729C77.6479 71.5381 78.394 71.8732 79.1847 71.8761C80.7373 71.8746 82 70.6061 81.9971 69.0499C81.9986 68.5537 81.8694 68.069 81.6241 67.6404ZM61.8566 36.5996L67.3667 46.1656H56.3221L57.8173 43.5695L57.8187 43.5681L58.0009 43.2516L60.1318 39.5553L60.3112 39.2403V39.2389L60.3126 39.2374L61.8451 36.5795L61.8566 36.5996ZM52.6028 21.7653C52.8051 21.7653 53.0117 21.8171 53.1983 21.9264C53.3791 22.0314 53.5283 22.181 53.6287 22.3564L54.2041 23.3589L60.8909 34.9658L60.9024 34.9859L59.532 37.3648L59.5205 37.3447L51.5711 23.5502C51.3601 23.1834 51.3601 22.7261 51.5711 22.3593C51.792 21.9782 52.1924 21.7653 52.6028 21.7653ZM49.2623 18.348C49.4201 18.0733 49.6741 17.8762 49.9812 17.7942C50.2882 17.7123 50.6068 17.7525 50.8823 17.9107C51.0631 18.0157 51.2138 18.1668 51.3171 18.3465C51.5266 18.7133 51.5266 19.1692 51.3185 19.5331L50.2065 21.4618C50.1964 21.4762 50.1892 21.492 50.1821 21.5079C50.1806 21.5093 50.1806 21.5093 50.1792 21.5107C50.172 21.5194 50.1677 21.5294 50.162 21.5395C49.6569 22.4111 49.6569 23.4956 50.1605 24.3671L58.5807 38.9785L58.5921 38.9987L57.2232 41.3776L57.2117 41.3574L48.3367 25.9536C47.2735 24.1025 47.2735 21.8041 48.3367 19.9545L49.2537 18.3624C49.2565 18.3581 49.2594 18.3523 49.2623 18.348ZM4.86151 67.9165L4.85721 67.9237L3.84272 69.6842C3.63035 70.0509 3.23718 70.2796 2.81532 70.2811C2.49963 70.2811 2.20117 70.1574 1.97732 69.933C1.75204 69.7086 1.62864 69.4109 1.62864 69.0916C1.62864 68.883 1.6846 68.6759 1.78935 68.4947L35.2991 10.3181C35.5186 9.9341 35.9189 9.7198 36.3308 9.7198C36.5317 9.7198 36.734 9.77014 36.9191 9.87657C37.064 9.95855 37.1889 10.0722 37.2864 10.2059C37.2907 10.2102 37.2936 10.216 37.2979 10.2203C37.3094 10.2491 37.3237 10.2778 37.3395 10.3037C37.4299 10.4619 37.4844 10.6389 37.4959 10.8201C37.4974 10.846 37.4974 10.8719 37.4974 10.8977V10.9236C37.4974 10.9495 37.4974 10.9754 37.4959 10.9999C37.4873 11.1811 37.4357 11.3566 37.351 11.509L4.86151 67.9165ZM8.45312 69.6842C8.24075 70.0509 7.84758 70.2796 7.42428 70.2811H7.42285C7.10573 70.2811 6.81013 70.1574 6.58485 69.9344C6.361 69.7101 6.2376 69.4123 6.23617 69.0945C6.23617 68.942 6.26343 68.791 6.31939 68.6501C6.34235 68.5968 6.36818 68.5451 6.39544 68.4947L38.75 12.3274C38.9983 11.8973 39.1246 11.417 39.1289 10.9351V10.9179C39.1289 10.8877 39.1289 10.8589 39.1274 10.8301C39.126 10.7741 39.1217 10.718 39.1159 10.6619C39.0844 10.2994 38.9811 9.94273 38.8089 9.61193C38.7945 9.5659 38.773 9.52132 38.7486 9.47961L38.6639 9.33147L37.6064 7.49911C37.3955 7.13091 37.3955 6.67354 37.605 6.30966C37.9364 5.7401 38.6668 5.54881 39.235 5.87962C39.4115 5.98317 39.5593 6.13131 39.6612 6.30535L40.5867 7.91477C41.65 9.76726 41.6457 12.0671 40.5753 13.9152C40.5738 13.9167 40.5738 13.9167 40.5738 13.9167L8.45312 69.6842ZM42.3029 19.1376L26.4729 46.6157L13.1884 69.6842C12.9774 70.0509 12.5828 70.2796 12.1624 70.2811C11.8453 70.2811 11.5482 70.1574 11.323 69.933C11.1005 69.7086 10.9757 69.4109 10.9757 69.0916C10.9757 68.883 11.0317 68.6759 11.1364 68.4947L42.1178 14.7322C43.4738 12.3777 43.4738 9.45372 42.1178 7.09927C42.1149 7.09496 42.1135 7.09208 42.1121 7.0892L41.155 5.48409L40.0056 3.48777C39.9999 3.47771 39.9941 3.46764 39.9884 3.45757C39.6383 2.90384 39.8018 2.16744 40.3543 1.8165C40.9067 1.46557 41.64 1.63097 41.9901 2.1847C42.0073 2.21203 42.026 2.24223 42.0403 2.271C42.0446 2.28106 42.0518 2.29113 42.0575 2.3012L45.2962 7.92052C46.3623 9.76726 46.3666 12.0642 45.3062 13.9152L42.3029 19.1376ZM43.7192 25.9521C42.653 24.1025 42.653 21.8041 43.7192 19.9545L46.952 14.3352C47.1716 13.9541 47.5705 13.7412 47.9809 13.7412C48.1832 13.7412 48.387 13.7915 48.5706 13.8994C48.7529 14.0044 48.9021 14.154 49.0054 14.3352C49.2149 14.702 49.2149 15.1579 49.0083 15.5218L47.8489 17.5325V17.5339L46.9234 19.139C45.5702 21.4935 45.5702 24.416 46.9234 26.7719L56.2676 42.9927L56.279 43.0129L54.9087 45.3903L54.8972 45.3702L43.7192 25.9521ZM46.6722 67.7267L45.5415 69.687C45.3292 70.0567 44.936 70.2839 44.5127 70.2839H44.5084C44.1927 70.2825 43.8942 70.1574 43.6718 69.933C43.4494 69.7072 43.326 69.4095 43.3274 69.0858C43.3274 68.8787 43.382 68.6759 43.4882 68.4947L50.1735 56.8908C50.4002 57.1065 50.5968 57.3568 50.756 57.6343C51.0272 58.1032 51.3702 58.5189 51.7691 58.8655L46.6722 67.7267ZM50.1677 69.687C49.9582 70.0567 49.5636 70.2839 49.1389 70.2839H49.1346C48.8175 70.2825 48.5204 70.1574 48.298 69.933C48.0742 69.7072 47.9508 69.4095 47.9536 69.083C47.9522 68.8931 47.9995 68.7047 48.0928 68.5393L53.1638 59.7155C53.722 59.9384 54.3232 60.0578 54.9431 60.0578H55.7165L50.1677 69.687ZM54.9403 58.4225C54.4796 58.4225 54.032 58.3218 53.6216 58.1377C53.6244 58.1406 53.6259 58.1435 53.6259 58.1464C53.6244 58.1435 53.623 58.1406 53.6201 58.1377C53.3733 58.0255 53.1366 57.8803 52.9242 57.7091C52.6229 57.4646 52.3617 57.1655 52.1651 56.8217C51.7963 56.1759 51.2927 55.6337 50.7029 55.2224L49.9223 54.7765C49.2981 54.4946 48.6108 54.3393 47.9048 54.3378H32.9817C32.5454 54.3364 32.1394 54.1005 31.9213 53.7237C31.7591 53.4403 31.7161 53.1095 31.8007 52.7931C31.8854 52.4767 32.0891 52.2121 32.3718 52.0495C32.5569 51.9431 32.7679 51.887 32.9802 51.8856H50.2079C51.3243 51.8885 52.3631 52.4623 52.9672 53.3972C53.0002 53.449 53.0318 53.5008 53.0619 53.554L55.8672 58.424H54.9403V58.4225ZM57.7656 58.4441C57.7584 58.4369 57.7498 58.4297 57.7412 58.4225H57.7527L54.4782 52.7399C53.6259 51.2441 52.0475 50.2992 50.3327 50.2531C50.294 50.2517 50.2524 50.2517 50.2122 50.2517H30.6887C30.2524 50.2488 29.8492 50.0115 29.6326 49.6261C29.5264 49.442 29.4704 49.232 29.4704 49.0191C29.469 48.3474 30.0128 47.8009 30.6829 47.8009H52.4995C53.6775 47.8023 54.7695 48.4409 55.3564 49.4707L56.2389 51.0039L59.0599 55.8955L60.5164 58.424H57.7541L57.7656 58.4441ZM70.7717 69.9272C70.6612 70.0394 70.5307 70.1272 70.3901 70.1861C70.248 70.2465 70.0945 70.2782 69.9366 70.2782C69.5133 70.2782 69.1201 70.0509 68.9106 69.6856L62.5539 58.6526C62.5224 58.598 62.4865 58.5476 62.4435 58.5045V58.5031L60.9856 55.9717H61.3185C62.7491 55.9717 64.085 56.744 64.7996 57.9882L71.0429 68.8226L71.0573 68.85C71.0645 68.8644 71.0716 68.8802 71.0802 68.8931L71.1075 68.942V68.9435C71.1133 68.9909 71.1147 69.0369 71.1147 69.0844C71.119 69.4023 70.9956 69.7014 70.7717 69.9272ZM75.8743 69.8035C75.7811 70.1171 75.5715 70.376 75.2846 70.5313C75.1066 70.6291 74.9057 70.6795 74.702 70.6795C74.7006 70.6795 74.7006 70.6795 74.7006 70.6795C74.2658 70.6795 73.8611 70.445 73.6444 70.0682L72.6515 68.348L72.65 68.3466V68.3451L72.5066 68.0963L72.4922 68.069C72.485 68.0546 72.4779 68.0388 72.4693 68.0258L72.1062 67.3959V67.3944L66.2144 57.1698C65.21 55.4208 63.3345 54.3349 61.3199 54.3349H60.0457L58.6323 51.8827H63.6703C65.1024 51.8841 66.4354 52.6565 67.1529 53.9006L75.7839 68.8773C75.9346 69.165 75.9662 69.4929 75.8743 69.8035ZM79.1876 70.2393C78.7643 70.2379 78.3711 70.0092 78.1587 69.6468L77.0294 67.685L69.4703 54.5737C69.4244 54.4917 69.3641 54.4212 69.2966 54.3637V54.3623L68.5605 53.0865C67.5546 51.3376 65.6806 50.2517 63.666 50.2517H57.6881L56.7683 48.6567C56.5904 48.346 56.3838 48.0612 56.1499 47.8009H68.3094L80.2121 68.4573C80.3168 68.6371 80.3699 68.8428 80.3714 69.0485C80.3714 69.7057 79.839 70.2393 79.1876 70.2393Z" fill="#512A9E"/>
<path d="M54.9403 58.4224C54.4796 58.4224 54.0319 58.3218 53.6216 58.1377C53.6244 58.1405 53.6259 58.1434 53.6259 58.1463C53.6244 58.1434 53.623 58.1405 53.6201 58.1377C53.3733 58.0255 53.1366 57.8802 52.9242 57.7091C52.6229 57.4645 52.3617 57.1654 52.1651 56.8216C51.7963 56.1759 51.2927 55.6336 50.7029 55.2223L49.9223 54.7764C49.2981 54.4945 48.6108 54.3392 47.9048 54.3377H32.9817C32.5454 54.3363 32.1394 54.1004 31.9212 53.7236C31.7591 53.4403 31.7161 53.1095 31.8007 52.793C31.8854 52.4766 32.0891 52.212 32.3718 52.0495C32.5569 51.943 32.7678 51.8869 32.9802 51.8855H50.2079C51.3242 51.8884 52.3631 52.4622 52.9672 53.3971C53.0002 53.4489 53.0318 53.5007 53.0619 53.5539L55.8672 58.4239H54.9403V58.4224Z" fill="url(#paint0_linear_1_78)"/>
<path d="M67.3667 46.1657H56.3221L57.8188 43.5696V43.5681L58.0024 43.2503L60.1319 39.5539L60.3112 39.239L60.3127 39.2361L61.8452 36.5796L61.8566 36.5997L67.3667 46.1657Z" fill="url(#paint1_linear_1_78)"/>
<path d="M18.3684 91.7013H16.183L12.9803 83.0041L9.78469 91.7013H7.5907L12.039 79.6169H13.9216L18.3684 91.7013Z" fill="#F15A08"/>
<path d="M31.9614 93.0001H29.733L29.027 91.7028H24.982C24.22 91.7028 23.5714 91.4324 23.0362 90.8944C22.501 90.3551 22.2327 89.7064 22.2327 88.947V82.3741C22.2327 81.6104 22.501 80.9603 23.0362 80.4238C23.5714 79.8874 24.22 79.6184 24.982 79.6184H29.4044C30.1606 79.6184 30.8092 79.8874 31.3473 80.4238C31.8854 80.9603 32.1537 81.6104 32.1537 82.3741V88.947C32.1537 89.4015 32.0518 89.8258 31.8466 90.2199C31.6414 90.6126 31.3545 90.9419 30.9842 91.2066L31.9614 93.0001ZM27.8662 89.5871L26.9837 87.969H29.2279L29.9425 89.2836C30.0099 89.1829 30.0429 89.0736 30.0429 88.9542V82.3641C30.0429 82.19 29.9812 82.0405 29.8578 81.9168C29.7344 81.7931 29.5852 81.7312 29.4116 81.7312H24.9719C24.7983 81.7312 24.6491 81.7931 24.5257 81.9168C24.4023 82.0405 24.3406 82.19 24.3406 82.3641V88.9542C24.3406 89.1282 24.4023 89.2778 24.5257 89.4015C24.6491 89.5252 24.7969 89.5871 24.9719 89.5871H27.8662Z" fill="#512A9E"/>
<path d="M38.9781 91.7013H36.8588V79.6169H45.619V81.7413H38.9767V84.589H44.5428V86.7134H38.9767V89.5698H45.619V91.6941H38.9767V91.7013H38.9781Z" fill="#512A9E"/>
<path d="M59.0944 91.7013H50.3256V79.6169H52.4449V89.5784H59.0958V91.7013H59.0944Z" fill="#512A9E"/>
<path d="M74.4093 91.7013H72.2239L69.0212 83.0041L65.8256 91.7013H63.6316L68.0798 79.6169H69.9625L74.4093 91.7013Z" fill="#F15A08"/>
</g>
<defs>
<linearGradient id="paint0_linear_1_78" x1="31.7592" y1="55.1538" x2="55.8695" y2="55.1538" gradientUnits="userSpaceOnUse">
<stop offset="2.65193e-07" stop-color="#F15A08"/>
<stop offset="1" stop-color="#512A9E"/>
</linearGradient>
<linearGradient id="paint1_linear_1_78" x1="58.073" y1="47.9204" x2="65.6338" y2="40.3772" gradientUnits="userSpaceOnUse">
<stop offset="1.63196e-07" stop-color="#512A9E"/>
<stop offset="1" stop-color="#F15A08"/>
</linearGradient>
<clipPath id="clip0_1_78">
<rect width="82" height="93" fill="white"/>
</clipPath>
</defs>
</svg>
