<svg width="31" height="32" viewBox="0 0 31 32" fill="none" xmlns="http://www.w3.org/2000/svg">
<path fill-rule="evenodd" clip-rule="evenodd" d="M14.0431 3.19995H16.9556C19.033 3.2048 19.5099 3.22369 20.6122 3.2756C21.9321 3.33775 22.8335 3.55416 23.6223 3.87062C24.4377 4.1977 25.1293 4.6354 25.8187 5.34703C26.5081 6.05871 26.9321 6.77257 27.2491 7.61433C27.5556 8.42855 27.7652 9.35908 27.8254 10.7216C27.8838 12.0414 27.8991 12.4927 27.9 15.6616V16.337C27.8991 19.5058 27.8838 19.9572 27.8254 21.277C27.7652 22.6395 27.5556 23.57 27.2491 24.3842C26.9321 25.226 26.5081 25.9399 25.8187 26.6515C25.1293 27.3632 24.4377 27.8009 23.6223 28.128C22.8335 28.4444 21.9321 28.6608 20.6122 28.723C19.3336 28.7832 18.8963 28.799 15.8265 28.7999H15.1723C12.1024 28.799 11.6651 28.7832 10.3866 28.723C9.06666 28.6608 8.16521 28.4444 7.37644 28.128C6.56098 27.8009 5.86943 27.3632 5.17998 26.6515C4.49059 25.9399 4.06657 25.226 3.74971 24.3842C3.44314 23.57 3.2335 22.6395 3.17329 21.277C3.123 20.1392 3.10471 19.6469 3.10001 17.5025V14.4961C3.10471 12.3517 3.123 11.8593 3.17329 10.7216C3.2335 9.35908 3.44314 8.42855 3.74971 7.61433C4.06657 6.77257 4.49059 6.05871 5.17998 5.34703C5.86943 4.6354 6.56098 4.1977 7.37644 3.87062C8.16521 3.55416 9.06666 3.33775 10.3866 3.2756C11.4888 3.22369 11.9658 3.2048 14.0431 3.19995H16.9556H14.0431ZM16.409 5.50543H14.5898C12.1006 5.5081 11.6653 5.52422 10.4884 5.57965C9.27936 5.63656 8.62276 5.84509 8.18579 6.02039C7.60696 6.25261 7.19386 6.52999 6.75995 6.97796C6.32598 7.42587 6.05727 7.85229 5.83231 8.44979C5.66248 8.90085 5.46047 9.57864 5.40534 10.8267C5.35164 12.0415 5.33602 12.4909 5.33344 15.0604V16.9383C5.33602 19.5076 5.35164 19.9571 5.40534 21.1719C5.46047 22.4199 5.66248 23.0977 5.83231 23.5488C6.05727 24.1463 6.32603 24.5727 6.75995 25.0206C7.19386 25.4686 7.60696 25.746 8.18579 25.9782C8.62276 26.1535 9.27936 26.362 10.4884 26.4189C11.7959 26.4805 12.188 26.4936 15.4994 26.4936C18.8107 26.4936 19.2029 26.4805 20.5103 26.4189C21.7194 26.362 22.376 26.1535 22.8129 25.9782C23.3918 25.746 23.8049 25.4686 24.2388 25.0206C24.6727 24.5727 24.9415 24.1463 25.1664 23.5488C25.3362 23.0977 25.5383 22.4199 25.5934 21.1719C25.653 19.8221 25.6657 19.4172 25.6657 15.9993C25.6657 12.5814 25.653 12.1765 25.5934 10.8267C25.5383 9.57864 25.3362 8.90085 25.1664 8.44979C24.9415 7.85229 24.6727 7.42587 24.2388 6.97796C23.8049 6.52999 23.3918 6.25261 22.8129 6.02039C22.376 5.84509 21.7194 5.63656 20.5103 5.57965C19.3335 5.52422 18.8981 5.5081 16.409 5.50543ZM15.4994 9.59893C18.9237 9.59893 21.6997 12.4644 21.6997 15.9993C21.6997 19.5341 18.9237 22.3996 15.4994 22.3996C12.075 22.3996 9.29902 19.5341 9.29902 15.9993C9.29902 12.4644 12.075 9.59893 15.4994 9.59893ZM15.4994 11.8447C13.2765 11.8447 11.4746 13.7047 11.4746 15.9993C11.4746 18.2938 13.2765 20.1539 15.4994 20.1539C17.7222 20.1539 19.5242 18.2938 19.5242 15.9993C19.5242 13.7047 17.7222 11.8447 15.4994 11.8447ZM22.2164 7.46548C23.0725 7.46548 23.7665 8.18188 23.7665 9.06559C23.7665 9.94931 23.0725 10.6657 22.2164 10.6657C21.3603 10.6657 20.6663 9.94931 20.6663 9.06559C20.6663 8.18188 21.3603 7.46548 22.2164 7.46548Z" fill="#EDECE9"/>
</svg>
