<svg width="1289" height="94" viewBox="0 0 1289 94" fill="none" xmlns="http://www.w3.org/2000/svg">
<g clip-path="url(#clip0_1_353)">
<path d="M8.99147 9.69239H193.896L291.229 88.3828H1280.01V84.3177H293.31L195.977 5.61719L8.99147 5.61719V9.69239Z" fill="#512A9E"/>
<path d="M1270.06 86.3502C1270.06 87.866 1270.61 89.3483 1271.66 90.6095C1272.7 91.8707 1274.17 92.854 1275.91 93.435C1277.64 94.016 1279.54 94.1685 1281.38 93.8733C1283.22 93.5781 1284.91 92.8483 1286.24 91.7765C1287.56 90.7047 1288.47 89.3389 1288.83 87.8521C1289.2 86.3653 1289.01 84.8244 1288.29 83.4243C1287.57 82.0243 1286.35 80.8281 1284.79 79.9872C1283.23 79.1463 1281.4 78.6985 1279.53 78.7004C1278.28 78.7004 1277.05 78.8983 1275.9 79.2827C1274.76 79.6672 1273.71 80.2307 1272.83 80.941C1271.96 81.6514 1271.26 82.4947 1270.78 83.4228C1270.31 84.3509 1270.06 85.3456 1270.06 86.3502Z" fill="#512A9E"/>
<path d="M9.4621 6.55347e-06C7.5877 7.84817e-06 5.75541 0.4495 4.19708 1.29161C2.63874 2.13372 1.42438 3.33061 0.707644 4.73083C-0.00909114 6.13106 -0.195993 7.6717 0.170587 9.15782C0.537167 10.6439 1.44075 12.0088 2.76702 13.0796C4.09329 14.1504 5.78264 14.8792 7.62133 15.1736C9.46001 15.468 11.3654 15.3149 13.0964 14.7336C14.8274 14.1523 16.3063 13.169 17.3459 11.908C18.3854 10.6471 18.939 9.16516 18.9366 7.64977C18.9366 6.64435 18.6914 5.64879 18.2151 4.72002C17.7389 3.79125 17.0408 2.94751 16.1608 2.23703C15.2809 1.52655 14.2363 0.963282 13.0869 0.579434C11.9375 0.195587 10.7057 -0.00130945 9.4621 6.55347e-06Z" fill="#512A9E"/>
</g>
<defs>
<clipPath id="clip0_1_353">
<rect width="1289" height="94" fill="white"/>
</clipPath>
</defs>
</svg>
