<svg width="29" height="29" viewBox="0 0 29 29" fill="none" xmlns="http://www.w3.org/2000/svg">
<path d="M28.0358 26.6039L20.4838 19.0519C22.2986 16.8733 23.2035 14.0788 23.0104 11.2498C22.8173 8.42091 21.541 5.77533 19.447 3.86345C17.353 1.95158 14.6025 0.920612 11.7677 0.985024C8.93293 1.04944 6.23211 2.20427 4.2271 4.20928C2.22209 6.21429 1.06726 8.91511 1.00285 11.7499C0.938435 14.5847 1.9694 17.3352 3.88128 19.4292C5.79315 21.5232 8.43873 22.7995 11.2677 22.9926C14.0966 23.1857 16.8911 22.2807 19.0698 20.4659L26.6218 28.0179L28.0358 26.6039ZM3.03576 12.0179C3.03576 10.2379 3.5636 8.49785 4.55253 7.01781C5.54147 5.53776 6.94707 4.38421 8.59161 3.70302C10.2361 3.02183 12.0457 2.8436 13.7916 3.19087C15.5374 3.53814 17.141 4.3953 18.3997 5.65398C19.6584 6.91265 20.5156 8.5163 20.8628 10.2621C21.2101 12.008 21.0319 13.8176 20.3507 15.4621C19.6695 17.1066 18.5159 18.5122 17.0359 19.5012C15.5559 20.4901 13.8158 21.0179 12.0358 21.0179C9.64962 21.0153 7.36198 20.0662 5.67472 18.379C3.98747 16.6917 3.03841 14.4041 3.03576 12.0179Z" fill="#512A9E" stroke="#512A9E"/>
</svg>
