<svg width="31" height="32" viewBox="0 0 31 32" fill="none" xmlns="http://www.w3.org/2000/svg">
<path fill-rule="evenodd" clip-rule="evenodd" d="M26.2247 9.98123C26.2418 10.2437 26.2418 10.5063 26.2418 10.7687C26.2418 18.775 20.6739 28 10.4975 28C7.36232 28 4.44989 27.0062 2 25.2813C2.44545 25.3375 2.87371 25.3563 3.33629 25.3563C5.92319 25.3563 8.30458 24.4 10.2062 22.7688C7.77349 22.7125 5.73477 20.9688 5.03234 18.5687C5.375 18.625 5.71763 18.6625 6.07744 18.6625C6.57425 18.6625 7.07112 18.5874 7.53365 18.4563C4.99812 17.8937 3.0964 15.4562 3.0964 12.5125V12.4375C3.83305 12.8875 4.68973 13.1688 5.59766 13.2062C4.10717 12.1187 3.13068 10.2625 3.13068 8.16246C3.13068 7.03748 3.40474 6.00623 3.88447 5.10622C6.60847 8.78122 10.7031 11.1812 15.2944 11.4437C15.2087 10.9937 15.1573 10.525 15.1573 10.0563C15.1573 6.71872 17.6244 4 20.691 4C22.2843 4 23.7233 4.73125 24.7341 5.9125C25.9847 5.65001 27.184 5.14374 28.2462 4.45C27.835 5.85629 26.9613 7.03754 25.8135 7.78748C26.9271 7.6563 28.0064 7.31872 29 6.85002C28.2463 8.04997 27.304 9.11868 26.2247 9.98123Z" fill="#EDECE9"/>
</svg>
